<?xml version="1.0" standalone="no"?>
<!DOCTYPE svg PUBLIC "-//W3C//DTD SVG 20010904//EN"
 "http://www.w3.org/TR/2001/REC-SVG-20010904/DTD/svg10.dtd">
<svg version="1.0" xmlns="http://www.w3.org/2000/svg"
 width="2130.000000pt" height="2130.000000pt" viewBox="0 0 2130.000000 2130.000000"
 preserveAspectRatio="xMidYMid meet">
<metadata>
Created by potrace 1.11, written by Peter Selinger 2001-2013
</metadata>
<g transform="translate(0.000000,2130.000000) scale(0.100000,-0.100000)"
fill="#000000" stroke="none">
<path d="M152 14833 c0 -13 4 -23 9 -23 5 0 8 -3 7 -7 -1 -5 4 -28 11 -53 7
-25 14 -49 15 -55 1 -5 5 -16 9 -22 5 -7 6 -13 2 -13 -3 0 -1 -10 6 -21 6 -12
13 -36 16 -53 3 -17 8 -33 11 -36 4 -3 8 -14 10 -25 2 -11 10 -41 18 -67 8
-25 17 -59 20 -74 3 -16 8 -31 12 -34 4 -3 9 -16 10 -30 2 -14 8 -27 13 -28 5
-2 7 -7 4 -12 -6 -9 19 -93 36 -124 8 -14 8 -16 -3 -10 -10 6 -10 4 1 -9 7 -9
10 -17 6 -17 -4 0 -3 -6 3 -12 9 -12 25 -70 23 -83 -1 -3 6 -19 14 -35 8 -16
16 -33 16 -37 0 -18 11 -59 20 -78 6 -11 11 -31 13 -45 2 -14 7 -34 11 -45 4
-11 13 -37 21 -58 8 -21 12 -42 9 -47 -3 -5 -1 -11 5 -15 5 -3 10 -17 10 -30
0 -13 5 -27 10 -30 6 -4 8 -11 5 -16 -4 -5 -1 -9 5 -9 6 0 9 -4 5 -9 -3 -5 -1
-20 4 -33 5 -13 14 -43 21 -68 7 -25 16 -54 20 -65 7 -20 17 -52 40 -135 7
-25 16 -56 20 -70 5 -14 18 -59 30 -100 12 -41 25 -82 28 -90 3 -8 6 -19 7
-25 1 -5 3 -13 5 -17 1 -5 3 -11 5 -15 1 -5 4 -15 8 -23 5 -14 20 -75 18 -75
-1 0 7 -25 18 -55 11 -30 17 -58 15 -62 -3 -5 -1 -8 4 -8 5 0 12 -12 15 -27
11 -57 18 -87 25 -97 3 -6 7 -15 8 -21 1 -5 12 -44 24 -85 12 -41 23 -79 25
-85 1 -5 5 -17 8 -25 4 -8 8 -24 10 -35 2 -11 7 -27 10 -35 9 -25 31 -94 33
-107 1 -7 12 -45 25 -85 13 -40 24 -79 26 -85 2 -7 5 -21 7 -30 3 -10 5 -18 6
-18 1 0 3 -7 5 -15 2 -8 10 -37 19 -64 8 -27 13 -53 10 -58 -3 -4 -1 -8 5 -8
5 0 15 -26 22 -57 7 -32 16 -63 22 -70 5 -7 6 -17 2 -23 -3 -5 -1 -10 5 -10 6
0 8 -4 5 -10 -3 -5 -3 -10 2 -10 4 0 9 -12 10 -26 0 -15 6 -36 11 -48 8 -16
29 -88 38 -126 0 -3 4 -13 8 -22 4 -9 9 -22 10 -30 8 -39 19 -75 28 -94 5 -12
11 -33 11 -48 1 -14 5 -26 10 -26 4 0 7 -11 7 -24 0 -14 5 -28 10 -31 6 -3 10
-19 10 -34 0 -15 5 -32 12 -39 7 -7 9 -12 5 -12 -4 0 -1 -16 7 -35 9 -20 15
-36 14 -38 0 -2 14 -56 28 -105 2 -7 4 -14 4 -17 0 -3 6 -21 14 -40 8 -19 13
-35 11 -35 -3 0 1 -17 9 -37 16 -42 56 -171 60 -193 2 -8 5 -22 8 -30 17 -46
48 -158 48 -173 0 -9 5 -17 11 -17 6 0 9 -7 6 -15 -4 -8 -2 -17 4 -20 5 -4 9
-12 8 -18 -1 -7 1 -19 4 -27 3 -8 17 -53 31 -100 13 -47 31 -107 40 -135 9
-27 16 -51 16 -52 0 -2 0 -4 1 -5 0 -2 2 -10 4 -18 2 -8 10 -36 19 -61 8 -25
17 -54 19 -65 2 -10 7 -26 10 -34 13 -31 47 -157 49 -177 1 -7 4 -13 7 -13 4
0 8 -12 9 -27 1 -15 7 -32 12 -37 6 -6 10 -22 10 -36 0 -15 3 -30 8 -34 4 -4
8 -12 8 -17 1 -5 3 -11 4 -14 1 -3 3 -8 4 -12 2 -5 8 -28 15 -53 7 -25 15 -56
18 -70 2 -14 8 -29 14 -35 5 -5 9 -22 9 -37 0 -15 4 -28 8 -28 4 0 9 -12 10
-26 1 -14 5 -31 9 -37 4 -7 9 -18 10 -25 7 -30 12 -47 13 -47 2 0 10 -36 12
-57 1 -10 5 -18 9 -18 6 0 22 -57 24 -85 0 -5 6 -23 12 -40 6 -16 21 -64 33
-105 12 -41 25 -82 28 -90 7 -20 12 -41 14 -62 1 -10 6 -18 11 -18 5 0 7 -7 4
-15 -4 -8 -2 -17 2 -19 7 -5 23 -60 20 -69 -1 -1 5 -18 13 -37 8 -19 15 -37
15 -40 0 -3 8 -32 18 -65 9 -33 19 -68 20 -77 2 -9 9 -26 15 -38 6 -11 8 -25
5 -30 -3 -5 -1 -11 4 -14 8 -5 25 -63 22 -78 0 -5 3 -8 8 -8 5 0 7 -9 4 -20
-3 -12 0 -20 8 -20 7 0 10 -3 7 -6 -4 -3 -2 -20 3 -37 6 -18 12 -39 14 -47 3
-8 16 -53 31 -100 14 -47 33 -112 42 -145 9 -33 19 -62 22 -65 3 -3 6 -11 8
-18 1 -7 4 -20 6 -30 3 -16 5 -22 22 -67 4 -11 8 -24 8 -30 4 -30 31 -115 37
-115 4 0 5 -8 2 -19 -3 -10 0 -22 6 -25 5 -4 8 -13 4 -21 -3 -8 -1 -15 4 -15
5 0 10 -8 11 -17 2 -23 7 -43 16 -68 22 -59 41 -129 34 -131 -2 0 3 -8 11 -17
7 -10 11 -17 8 -17 -3 0 1 -16 9 -35 8 -19 12 -35 10 -35 -3 0 2 -16 10 -35 8
-19 13 -38 12 -42 0 -5 4 -21 10 -36 7 -16 12 -34 12 -42 0 -8 4 -16 10 -20 5
-3 7 -12 3 -20 -3 -8 -1 -15 4 -15 5 0 9 -8 10 -19 2 -25 42 -162 54 -183 5
-10 9 -27 9 -38 0 -11 4 -20 10 -20 5 0 7 -6 4 -14 -3 -7 2 -30 10 -51 9 -21
16 -46 16 -56 0 -18 31 -19 1127 -19 619 0 1124 3 1120 6 -3 4 1 20 9 36 9 17
13 32 10 36 -3 3 -2 10 3 16 5 6 14 29 21 51 7 22 17 46 23 53 5 6 7 12 3 12
-5 0 1 19 30 95 4 11 8 22 9 25 2 11 27 86 32 100 3 8 8 23 10 33 1 10 10 32
19 48 8 17 13 33 10 37 -3 3 1 14 11 24 9 10 13 18 9 18 -3 0 0 15 8 34 8 19
12 37 8 40 -3 3 0 6 7 6 7 0 9 5 6 10 -4 6 -1 17 5 25 7 8 10 15 6 15 -4 0 0
13 8 29 9 16 12 31 9 35 -4 3 -2 6 4 6 5 0 10 6 11 13 2 24 8 47 15 53 4 4 7
17 7 29 0 11 5 26 10 31 6 6 13 21 16 35 3 13 6 29 7 34 2 6 7 17 12 25 5 8
10 21 11 30 1 8 13 48 27 88 14 39 23 72 19 72 -4 0 -1 4 5 8 7 4 14 18 16 30
2 12 6 25 10 28 4 4 7 18 7 31 0 13 5 23 12 23 6 0 9 3 6 6 -3 3 22 88 57 189
34 101 60 187 57 190 -3 3 1 5 8 5 7 0 11 3 8 6 -3 3 5 32 18 66 13 33 23 63
22 67 -1 3 2 14 5 24 17 42 20 53 23 62 1 6 8 24 15 40 6 17 14 39 16 49 2 11
8 26 15 33 6 7 8 16 5 19 -3 3 3 25 13 49 10 24 16 46 13 49 -4 3 -1 6 5 6 7
0 11 3 10 8 -2 10 21 91 37 127 11 25 20 54 30 95 0 3 6 15 13 28 7 12 10 22
7 22 -3 0 1 13 10 30 8 16 15 32 15 35 0 3 0 6 1 8 4 12 10 44 11 55 1 6 5 12
10 12 4 0 8 8 8 18 0 9 7 30 15 45 8 15 10 25 4 21 -7 -4 -7 0 0 12 17 29 36
82 44 118 2 8 9 22 17 32 13 16 13 17 0 9 -12 -7 -13 -6 -3 7 7 8 10 18 6 21
-3 4 -1 7 5 7 7 0 11 3 11 8 -1 4 0 9 1 12 1 5 4 16 13 52 2 7 9 24 16 36 7
13 10 26 7 30 -3 3 1 16 9 29 9 13 13 23 9 23 -4 0 -1 7 6 15 7 8 9 15 5 15
-4 0 -2 7 5 15 6 8 9 19 6 24 -4 5 -1 13 5 16 5 4 8 13 5 20 -2 7 2 16 11 19
9 4 13 9 10 13 -3 3 0 21 8 39 8 19 11 34 8 34 -3 0 -1 6 4 13 6 6 13 24 17
39 3 15 10 37 15 50 5 13 9 26 11 30 1 4 12 37 25 73 13 36 21 65 18 65 -3 0
-1 6 4 13 5 6 15 32 23 57 7 25 17 49 22 55 4 5 8 19 8 31 0 13 5 26 11 29 6
4 8 13 5 21 -3 8 0 14 6 14 6 0 9 3 5 6 -3 3 3 26 13 50 11 24 20 46 20 49 0
3 0 6 1 8 0 1 2 9 4 17 2 8 17 56 35 105 34 99 36 107 40 117 1 4 13 38 27 75
13 37 26 78 29 90 2 12 9 35 16 50 6 16 12 31 13 36 2 4 4 9 5 12 1 3 4 10 5
15 1 6 4 12 5 15 1 3 4 10 5 15 1 6 4 12 5 15 1 3 4 10 5 15 1 6 4 12 5 15 1
3 3 8 4 13 1 4 4 12 7 17 4 6 10 24 14 40 10 35 9 34 19 60 29 75 34 93 29 99
-4 3 -1 6 6 6 7 0 10 4 7 8 -3 5 1 21 9 35 8 15 14 30 15 32 6 40 14 64 21 60
6 -4 39 -97 43 -125 1 -3 4 -9 8 -15 5 -8 22 -62 34 -107 1 -5 3 -11 4 -15 1
-5 2 -11 1 -15 0 -5 3 -8 9 -8 5 0 10 -11 10 -23 0 -13 3 -27 8 -31 4 -4 7
-11 8 -14 0 -4 3 -14 7 -22 3 -8 13 -42 23 -75 9 -33 21 -64 26 -70 4 -5 8
-18 8 -30 0 -12 4 -25 9 -30 4 -6 14 -31 21 -57 7 -27 17 -48 22 -48 5 0 7 -4
4 -9 -3 -5 5 -39 19 -75 14 -36 22 -66 19 -66 -4 0 -1 -7 6 -15 7 -8 9 -15 5
-15 -4 0 -3 -6 3 -12 6 -7 10 -15 10 -18 1 -3 5 -18 11 -33 6 -16 11 -34 11
-41 0 -7 3 -16 8 -20 4 -4 8 -12 8 -17 1 -5 3 -11 4 -14 3 -5 3 -6 15 -50 4
-16 12 -36 18 -42 5 -7 6 -13 2 -13 -4 0 -2 -7 5 -15 7 -8 9 -15 4 -15 -4 0
-3 -5 4 -12 7 -7 12 -22 12 -35 0 -13 5 -23 11 -23 6 0 9 -6 6 -14 -3 -8 -3
-17 1 -20 3 -4 7 -12 8 -19 1 -7 8 -25 15 -42 7 -16 13 -34 14 -40 0 -5 3 -14
6 -20 4 -5 19 -52 35 -102 15 -51 32 -93 37 -93 4 0 5 -4 2 -10 -3 -5 -1 -19
5 -31 7 -11 14 -32 16 -47 3 -14 8 -30 12 -36 3 -6 7 -15 8 -21 5 -27 10 -40
16 -45 4 -3 9 -15 11 -25 2 -11 7 -27 10 -35 17 -44 41 -126 39 -132 -1 -5 3
-8 10 -8 6 0 8 -3 5 -7 -4 -3 -2 -12 4 -20 6 -7 9 -13 5 -13 -3 0 0 -15 8 -34
8 -19 12 -37 8 -40 -3 -3 1 -6 8 -6 7 0 11 -3 8 -6 -4 -3 0 -20 7 -39 8 -18
11 -35 8 -39 -4 -3 -2 -6 4 -6 6 0 14 -7 17 -16 3 -9 2 -12 -5 -8 -7 4 -7 0 0
-12 8 -17 22 -50 26 -64 4 -18 38 -119 45 -135 5 -11 14 -38 21 -60 6 -22 14
-44 18 -50 3 -5 6 -14 8 -20 1 -5 4 -20 7 -32 2 -12 10 -31 16 -42 6 -12 8
-21 4 -21 -3 0 -2 -6 3 -12 6 -7 14 -26 18 -43 10 -37 9 -34 24 -70 7 -16 13
-38 14 -47 1 -10 5 -18 9 -18 4 0 8 -8 8 -19 0 -10 7 -36 16 -57 9 -21 18 -45
20 -53 4 -19 61 -190 71 -211 3 -8 7 -19 8 -25 3 -12 84 -254 92 -275 3 -8 8
-23 10 -33 1 -10 10 -31 18 -47 9 -17 15 -31 14 -32 -4 -5 23 -83 31 -92 5 -5
6 -15 3 -22 -3 -8 -1 -14 4 -14 5 0 10 -12 11 -27 1 -15 7 -32 12 -37 6 -6 10
-19 10 -31 0 -12 4 -25 9 -30 6 -6 12 -22 15 -37 2 -14 9 -35 15 -46 6 -11 7
-22 4 -26 -3 -3 -2 -6 4 -6 5 0 10 -7 11 -15 1 -8 3 -22 4 -30 1 -8 5 -15 10
-15 4 0 7 -3 6 -7 -3 -10 34 -126 41 -133 3 -3 8 -16 10 -30 1 -14 9 -37 17
-51 7 -15 10 -29 7 -33 -4 -3 -1 -6 5 -6 6 0 9 -6 6 -14 -3 -8 0 -17 5 -21 6
-3 9 -10 6 -15 -3 -5 -1 -11 5 -15 5 -3 10 -16 10 -29 0 -12 3 -26 7 -30 5 -4
8 -11 9 -14 0 -4 3 -14 7 -22 3 -8 11 -33 18 -55 6 -22 16 -46 22 -52 5 -7 7
-13 3 -13 -3 0 4 -24 15 -52 11 -29 20 -54 20 -55 0 -2 2 -8 4 -15 3 -7 17
-51 33 -98 l28 -85 1123 -3 c749 -1 1120 1 1116 8 -3 5 -1 10 5 10 6 0 9 4 5
10 -3 5 1 25 9 45 8 19 13 35 10 35 -3 0 0 8 5 18 6 11 12 30 15 43 2 13 14
53 25 89 11 36 20 67 20 70 0 3 5 19 11 35 7 17 14 39 16 50 3 11 6 25 8 30 2
6 6 24 11 40 4 17 12 35 17 41 5 7 8 16 7 20 -2 5 5 34 15 64 9 30 20 66 22
80 3 13 10 30 16 37 6 8 8 16 5 20 -4 3 -1 15 5 27 7 11 11 24 10 28 -1 4 5
25 12 46 8 22 12 43 9 46 -4 3 0 6 7 6 7 0 11 3 7 6 -3 3 1 25 10 47 14 41 18
54 27 97 3 11 8 25 11 30 6 10 16 49 19 80 1 8 7 24 13 35 10 20 26 71 28 90
0 6 4 16 8 23 5 6 5 16 2 22 -3 6 -1 10 6 10 7 0 10 3 7 6 -4 3 0 21 8 40 8
19 12 34 9 34 -3 0 2 14 10 31 9 17 14 33 11 36 -3 3 0 15 6 27 7 11 13 29 14
39 1 9 3 20 4 25 1 4 2 10 1 15 0 4 4 7 10 7 5 0 8 4 5 8 -3 4 6 38 19 75 13
37 22 67 20 67 -1 0 12 47 30 104 18 58 30 107 27 110 -3 3 0 6 7 6 6 0 11 6
9 13 -2 12 24 108 43 155 5 13 7 27 4 32 -3 5 -1 10 5 12 5 1 11 15 12 31 1
15 5 27 9 27 3 0 6 6 7 13 1 19 9 51 26 101 9 26 16 51 16 56 0 5 5 21 12 37
12 31 14 36 21 75 3 14 10 36 17 47 6 12 8 21 6 21 -3 0 2 19 10 43 9 23 17
49 19 57 2 8 4 15 5 15 2 0 10 36 12 58 1 9 7 17 12 17 5 0 6 3 3 7 -4 3 -2
12 3 19 6 6 10 16 8 20 -2 8 30 120 52 184 10 27 33 111 34 122 1 3 4 10 9 14
4 4 7 17 7 29 0 12 3 25 7 29 4 3 8 16 10 27 2 11 12 49 24 85 11 35 22 72 24
82 2 9 4 17 5 17 1 0 3 7 5 15 2 8 18 62 36 120 18 58 33 112 34 120 1 8 6 24
13 36 6 11 13 34 16 50 2 16 5 29 6 29 1 0 3 7 5 15 2 8 14 47 27 87 13 39 19
69 14 65 -6 -3 -5 1 1 10 7 8 10 18 6 21 -3 4 -2 7 4 7 6 0 14 17 19 38 8 40
8 40 17 62 9 24 20 74 19 83 -1 4 3 7 9 7 5 0 7 5 4 10 -3 6 -3 16 2 23 8 12
12 26 18 62 2 11 4 22 5 25 1 3 2 8 1 13 0 4 3 7 7 7 4 0 8 8 9 18 1 10 10 44
21 75 11 31 18 57 15 57 -3 0 0 7 7 15 7 8 10 15 7 15 -3 0 8 39 24 88 16 48
29 88 29 90 -1 7 13 60 20 77 9 19 32 98 36 120 1 6 3 15 4 20 1 6 2 13 1 18
0 4 3 7 7 7 5 0 9 6 10 13 1 25 13 71 22 87 5 10 6 20 3 24 -3 3 -2 6 3 6 5 0
10 10 11 23 0 12 7 36 13 52 7 17 14 37 16 45 4 20 10 42 17 63 18 47 29 89
30 115 0 6 5 12 10 12 5 0 7 6 4 14 -3 8 -3 17 1 21 4 4 7 10 8 13 2 16 17 68
23 77 6 11 6 13 16 59 3 16 10 37 15 47 6 10 10 26 10 36 0 10 6 29 13 44 8
14 13 33 11 42 -1 9 2 17 7 17 5 0 8 3 7 8 -1 4 5 27 12 52 21 71 31 108 33
130 1 8 5 17 9 20 4 3 10 17 12 30 2 14 5 26 7 28 1 1 2 5 3 10 1 4 5 13 9 20
5 6 6 12 2 12 -3 0 1 16 9 35 9 20 15 36 14 38 0 1 7 29 17 62 9 33 19 68 20
78 2 9 7 22 10 27 3 5 8 18 10 28 2 11 13 50 25 88 12 38 23 76 25 84 2 8 8
26 13 40 5 14 10 28 11 33 0 4 2 9 2 12 1 3 3 10 4 15 1 6 4 12 5 15 1 3 4 10
5 15 1 6 3 11 5 13 1 1 4 15 6 32 3 16 9 35 15 41 5 6 6 14 2 17 -3 4 -1 12 4
19 6 7 14 29 18 48 4 19 10 40 13 45 4 6 7 15 8 20 1 6 8 30 15 55 7 25 14 50
15 55 0 6 7 24 13 40 7 17 14 39 16 50 2 11 11 45 20 75 9 30 17 62 18 70 1 8
5 18 9 21 5 3 9 17 10 32 1 15 5 27 9 27 3 0 6 6 7 13 0 6 8 37 17 67 9 30 18
62 19 70 1 9 4 20 8 25 3 6 9 24 13 40 5 17 9 33 10 38 2 4 4 8 5 10 1 1 4 11
6 22 1 11 9 38 17 60 8 22 17 51 19 65 1 14 7 28 12 31 4 4 9 19 10 35 2 16 8
39 14 51 7 12 11 26 11 30 -1 4 3 21 9 36 7 16 12 37 12 48 0 10 5 19 11 19 5
0 7 5 4 10 -4 6 -1 17 5 25 7 8 10 15 7 15 -3 0 -1 15 4 33 6 17 12 39 14 47
2 8 4 16 5 18 2 1 4 7 5 12 1 6 4 13 5 18 2 4 4 12 5 17 1 6 5 17 8 25 10 25
37 125 35 130 -1 3 4 15 11 28 12 22 31 30 31 13 0 -12 201 -315 212 -319 4
-2 8 -8 8 -12 0 -12 62 -104 72 -108 4 -2 8 -9 8 -16 0 -7 9 -21 20 -31 11
-10 20 -22 20 -27 0 -9 39 -68 51 -78 3 -3 14 -21 24 -40 10 -18 23 -40 29
-47 29 -32 36 -43 36 -53 0 -5 5 -10 10 -10 6 0 10 -4 10 -10 0 -9 98 -159
111 -170 3 -3 8 -10 10 -15 7 -20 223 -340 231 -343 5 -2 8 -10 8 -18 0 -8 5
-14 10 -14 6 0 10 -5 10 -11 0 -12 61 -102 73 -107 4 -2 5 -8 1 -13 -3 -5 -1
-9 4 -9 5 0 17 -16 28 -35 10 -19 22 -35 26 -35 5 0 8 -7 8 -15 0 -8 5 -15 10
-15 6 0 10 -4 10 -9 0 -6 15 -31 33 -57 17 -25 37 -53 42 -62 6 -9 34 -51 62
-93 29 -42 53 -81 53 -87 0 -6 4 -12 8 -14 5 -1 44 -57 88 -123 43 -66 82
-121 87 -123 4 -2 7 -10 7 -18 0 -8 5 -14 10 -14 6 0 10 -7 10 -15 0 -8 5 -15
10 -15 6 0 10 -5 10 -10 0 -11 34 -62 57 -87 6 -7 15 -22 18 -33 3 -11 11 -20
16 -20 5 0 9 -7 9 -15 0 -8 5 -15 10 -15 6 0 10 -7 10 -15 0 -8 5 -15 10 -15
6 0 10 -7 10 -15 0 -8 5 -15 10 -15 6 0 10 -5 10 -10 0 -11 34 -62 57 -87 6
-7 15 -22 18 -33 3 -11 11 -20 16 -20 5 0 9 -7 9 -15 0 -8 5 -15 10 -15 6 0
10 -7 10 -15 0 -8 5 -15 10 -15 6 0 10 -6 10 -13 0 -8 9 -22 20 -32 11 -10 20
-24 20 -32 0 -7 5 -13 10 -13 6 0 10 -6 10 -14 0 -8 3 -16 7 -18 12 -5 53 -66
53 -78 0 -5 5 -10 10 -10 6 0 10 -7 10 -15 0 -8 5 -15 10 -15 6 0 10 -6 10
-13 0 -8 9 -22 20 -32 11 -10 20 -23 20 -29 0 -6 11 -24 25 -40 13 -16 27 -37
30 -47 4 -11 11 -19 17 -19 6 0 9 -3 5 -6 -3 -3 5 -18 19 -32 13 -15 24 -32
24 -38 0 -6 9 -19 20 -29 11 -10 20 -24 20 -32 0 -7 5 -13 10 -13 6 0 10 -6
10 -14 0 -8 3 -16 8 -18 11 -5 52 -66 52 -78 0 -5 5 -10 10 -10 6 0 10 -7 10
-15 0 -8 5 -15 10 -15 6 0 10 -7 10 -15 0 -8 5 -15 10 -15 6 0 10 -7 10 -15 0
-8 5 -15 10 -15 6 0 10 -7 10 -15 0 -8 5 -15 10 -15 6 0 10 -6 10 -14 0 -8 3
-16 8 -18 11 -5 52 -66 52 -78 0 -5 5 -10 10 -10 6 0 10 -7 10 -15 0 -8 5 -15
10 -15 6 0 10 -7 10 -15 0 -8 5 -15 10 -15 6 0 10 -6 10 -13 0 -7 11 -24 25
-39 14 -15 25 -30 25 -34 0 -4 11 -22 25 -40 14 -18 25 -37 25 -43 0 -6 4 -11
9 -11 5 0 11 -10 14 -22 6 -23 -25 -75 -80 -133 -7 -8 -13 -17 -13 -22 0 -5
-13 -23 -29 -41 -17 -17 -28 -32 -25 -32 3 0 0 -6 -6 -12 -6 -7 -42 -56 -81
-108 -38 -52 -76 -103 -84 -113 -8 -9 -15 -20 -15 -23 0 -3 -6 -11 -12 -19 -7
-7 -22 -25 -33 -41 -58 -81 -111 -149 -117 -152 -5 -2 -8 -9 -8 -15 0 -7 -11
-24 -25 -39 -14 -15 -25 -32 -25 -37 0 -6 -6 -14 -13 -18 -8 -4 -22 -21 -33
-38 -10 -16 -21 -32 -24 -35 -3 -3 -16 -21 -30 -40 -13 -19 -28 -39 -32 -45
-5 -5 -37 -48 -70 -95 -34 -47 -68 -91 -75 -98 -7 -7 -13 -16 -13 -20 0 -4
-14 -23 -30 -42 -16 -19 -30 -38 -30 -42 0 -4 -16 -24 -35 -45 -19 -21 -35
-43 -35 -48 0 -6 -13 -25 -29 -43 -17 -17 -28 -32 -25 -32 3 0 0 -6 -6 -12 -6
-7 -36 -47 -67 -88 -31 -41 -60 -77 -65 -78 -4 -2 -6 -7 -3 -12 2 -4 -4 -15
-15 -25 -11 -10 -20 -22 -20 -27 0 -4 -8 -16 -17 -26 -10 -11 -27 -32 -38 -48
-11 -15 -28 -36 -37 -45 -9 -10 -14 -19 -12 -22 2 -2 -9 -18 -26 -35 -17 -18
-28 -32 -25 -32 3 0 -6 -12 -20 -27 -14 -15 -25 -31 -25 -35 0 -7 -15 -28 -45
-62 -6 -6 -21 -28 -35 -48 -14 -21 -28 -38 -32 -38 -5 0 -8 -7 -8 -15 0 -8 -4
-15 -10 -15 -5 0 -10 -5 -10 -11 0 -6 -12 -26 -27 -44 -16 -18 -37 -45 -48
-60 -11 -16 -25 -33 -31 -40 -6 -6 -15 -21 -18 -33 -4 -12 -12 -20 -17 -17 -5
4 -9 1 -9 -5 0 -9 -54 -87 -107 -155 -5 -5 -26 -35 -48 -65 -22 -30 -44 -60
-50 -67 -27 -32 -31 -39 -38 -56 -3 -9 -11 -17 -17 -17 -5 0 -10 -5 -10 -11 0
-11 -60 -92 -73 -97 -4 -2 -5 -8 -1 -13 3 -5 1 -9 -4 -9 -6 0 -24 -23 -42 -50
-18 -28 -37 -50 -43 -50 -6 0 -8 -3 -4 -6 4 -5 -37 -64 -111 -159 -4 -5 -23
-31 -41 -57 -19 -27 -38 -48 -43 -48 -5 0 -6 -5 -3 -10 3 -6 -1 -13 -9 -16 -9
-3 -13 -10 -10 -15 3 -5 -2 -12 -10 -15 -9 -3 -16 -10 -16 -15 0 -7 -71 -104
-123 -169 -7 -8 -22 -31 -34 -50 -12 -19 -34 -48 -48 -64 -14 -16 -25 -32 -25
-35 0 -3 -12 -19 -26 -36 -14 -16 -33 -42 -42 -58 -9 -15 -20 -27 -24 -27 -4
0 -8 -7 -8 -15 0 -8 -4 -15 -8 -15 -4 0 -15 -12 -24 -27 -14 -25 -28 -43 -68
-90 -5 -7 -10 -15 -10 -18 0 -8 -73 -99 -83 -103 -4 -2 -7 -8 -7 -14 0 -5 -20
-36 -45 -68 -25 -32 -45 -64 -45 -70 0 -6 -4 -8 -10 -5 -5 3 -10 -1 -10 -10 0
-8 -7 -18 -15 -21 -8 -4 -12 -10 -9 -15 3 -5 1 -9 -3 -9 -5 0 -19 -18 -33 -40
-13 -22 -30 -42 -37 -44 -7 -3 -13 -11 -13 -17 0 -7 -16 -31 -35 -55 -19 -23
-35 -45 -35 -48 0 -6 -24 -36 -47 -61 -7 -8 -13 -18 -13 -24 0 -6 -4 -11 -10
-11 -5 0 -10 -4 -10 -10 0 -7 448 -10 1323 -10 l1324 0 19 35 c10 19 22 35 25
35 4 0 17 16 29 35 12 20 27 41 33 48 7 6 26 32 42 57 17 25 35 50 40 57 15
19 29 38 40 55 6 9 37 53 70 98 33 45 65 89 70 98 6 9 15 21 20 28 6 6 39 52
75 103 36 51 75 104 87 119 13 15 23 33 23 40 0 6 3 12 8 12 4 0 18 17 32 38
24 36 29 43 58 77 7 8 10 15 7 15 -3 0 3 8 13 18 9 10 24 29 32 42 8 12 36 51
62 86 26 35 44 64 40 64 -4 0 0 6 8 13 9 7 38 44 65 82 27 39 53 72 57 73 5 2
8 10 8 17 0 7 3 15 8 17 4 2 30 35 57 73 27 39 51 72 54 75 3 3 11 12 16 21 6
10 37 54 70 99 33 45 65 89 70 99 6 9 16 20 23 24 6 4 12 12 12 18 0 10 10 23
42 59 9 10 14 21 11 24 -3 3 2 8 11 12 9 3 16 10 16 16 0 5 6 16 13 23 28 33
37 45 37 53 0 5 9 17 20 27 11 10 20 24 20 30 0 7 7 15 15 19 8 3 15 12 15 21
0 8 3 15 8 15 4 0 18 17 32 38 13 20 35 51 47 67 28 36 29 37 73 100 19 28 38
52 42 53 4 2 8 10 8 18 0 8 4 14 8 14 4 0 16 15 27 33 10 17 29 43 41 56 13
14 21 28 18 33 -3 4 -1 8 4 8 6 0 24 22 42 50 18 27 37 50 43 50 6 0 8 3 4 6
-3 4 -1 12 6 20 29 32 37 44 37 53 0 5 7 11 15 15 8 3 15 12 15 20 0 11 20 26
35 26 1 0 8 -13 15 -30 7 -16 16 -30 21 -30 5 0 8 -3 7 -7 -2 -8 4 -19 69
-120 18 -28 33 -56 33 -62 0 -6 3 -11 8 -11 4 0 12 -10 18 -23 22 -45 157
-262 166 -265 4 -2 8 -9 8 -15 0 -7 20 -42 44 -79 24 -37 45 -70 47 -75 2 -4
23 -40 47 -78 24 -39 48 -79 55 -90 7 -11 24 -39 40 -62 15 -23 27 -46 27 -52
0 -6 4 -11 8 -11 5 0 14 -16 22 -35 7 -19 16 -32 20 -30 3 2 12 -12 19 -31 7
-18 17 -34 22 -34 5 0 9 -4 9 -9 0 -11 176 -301 199 -327 5 -7 7 -15 4 -18 -4
-3 -1 -6 5 -6 7 0 12 -5 12 -12 0 -6 11 -26 26 -45 14 -18 22 -33 19 -33 -3 0
3 -10 15 -22 11 -12 20 -25 20 -29 0 -5 13 -28 30 -52 16 -25 30 -50 30 -56 0
-6 4 -11 9 -11 5 0 11 -8 14 -17 3 -10 33 -61 67 -113 34 -52 64 -103 67 -112
3 -10 9 -18 14 -18 5 0 9 -4 9 -10 0 -8 27 -54 88 -150 9 -14 15 -28 14 -32
-1 -5 2 -8 7 -8 5 0 14 -14 21 -30 7 -17 16 -30 20 -30 4 0 10 -8 13 -17 7
-23 37 -72 60 -97 9 -11 17 -25 17 -32 0 -6 7 -17 15 -24 8 -7 13 -16 10 -20
-2 -4 4 -15 15 -25 11 -10 20 -24 20 -31 0 -7 6 -19 13 -26 7 -7 35 -50 62
-96 l50 -82 1332 0 c733 0 1333 3 1333 8 0 4 -11 19 -24 34 -14 14 -22 29 -19
32 4 3 1 6 -5 6 -7 0 -12 5 -12 11 0 7 -16 31 -35 55 -19 23 -35 47 -35 53 0
6 -3 11 -7 11 -5 0 -21 21 -38 48 -16 26 -33 52 -37 57 -42 53 -78 106 -78
114 0 6 -4 11 -8 11 -4 0 -16 15 -27 33 -10 17 -24 37 -29 44 -28 32 -36 43
-36 48 0 5 -27 46 -57 84 -40 53 -123 173 -123 180 0 4 -8 16 -18 27 -31 34
-112 152 -112 163 0 6 -4 11 -9 11 -5 0 -19 17 -32 38 -12 20 -37 56 -56 79
-18 23 -33 45 -33 50 0 5 -13 23 -29 40 -16 18 -27 34 -25 36 2 2 -8 17 -23
33 -15 16 -26 31 -25 34 1 3 -8 15 -18 28 -11 12 -20 26 -20 31 0 4 -9 16 -20
26 -11 10 -20 24 -20 31 0 7 -10 20 -22 28 -12 9 -19 16 -15 16 5 0 1 7 -7 16
-9 8 -16 22 -16 30 0 8 -4 14 -8 14 -5 0 -20 17 -33 37 -65 98 -144 208 -151
211 -4 2 -8 10 -8 18 0 8 -3 14 -8 14 -4 0 -16 16 -26 35 -11 19 -22 35 -26
35 -4 0 -13 14 -20 30 -7 17 -15 30 -19 30 -4 0 -15 16 -25 35 -11 19 -23 35
-28 35 -4 0 -8 4 -8 10 0 5 -23 39 -50 76 -28 37 -50 70 -50 74 0 4 -9 18 -20
31 -28 34 -30 37 -80 109 -24 36 -48 67 -52 68 -4 2 -8 9 -8 16 0 7 -8 21 -17
32 -10 11 -22 27 -28 36 -41 63 -81 118 -87 118 -5 0 -8 7 -8 15 0 8 -4 15
-10 15 -5 0 -12 11 -16 24 -3 14 -12 27 -20 30 -8 3 -14 12 -14 20 0 8 -4 16
-8 18 -8 3 -122 164 -147 206 -5 9 -13 19 -16 22 -3 3 -20 28 -39 55 -19 28
-36 52 -40 55 -3 3 -16 22 -29 43 -13 21 -30 44 -38 52 -8 8 -11 15 -6 15 4 0
3 4 -3 8 -11 7 -54 67 -132 182 -24 35 -46 67 -50 70 -4 3 -29 39 -57 80 -27
41 -54 78 -60 82 -6 5 -6 8 0 8 7 0 7 3 0 8 -12 9 -95 119 -95 126 0 3 -9 16
-20 28 -10 13 -20 28 -22 33 -2 10 -21 35 -45 60 -7 8 -13 16 -13 20 0 7 -38
61 -63 89 -9 11 -17 25 -17 31 0 6 -9 17 -20 25 -11 8 -20 18 -20 23 0 7 -37
64 -50 77 -3 3 -19 25 -35 50 -17 25 -36 51 -43 58 -6 7 -12 17 -12 22 0 5
-11 20 -25 34 -14 14 -25 30 -25 35 0 5 -11 22 -25 37 -14 15 -23 29 -21 31 2
2 -9 18 -25 35 -15 17 -26 35 -23 39 2 4 -1 9 -6 11 -10 3 6 30 42 68 9 10 14
21 11 24 -4 3 -1 6 5 6 7 0 12 5 12 10 0 6 5 16 10 23 44 51 60 73 60 79 0 3
12 20 26 37 14 17 23 31 19 31 -3 0 4 10 15 23 12 12 35 43 52 70 17 26 35 47
40 47 5 0 7 4 4 8 -3 5 6 20 20 35 13 14 24 29 24 32 0 3 5 11 10 18 29 33
100 138 100 147 0 5 4 10 8 10 4 0 21 20 36 45 16 25 33 45 37 45 5 0 8 4 6 8
-1 5 8 21 21 38 12 16 59 81 103 144 44 63 86 118 92 122 7 4 8 8 4 8 -5 0 3
15 17 33 34 41 35 43 71 97 16 25 32 47 35 50 3 3 28 38 55 78 26 39 52 72 56
72 4 0 10 11 13 25 4 14 11 23 16 20 6 -3 10 -1 10 6 0 7 23 43 50 81 28 38
50 73 50 78 0 6 4 10 8 10 4 0 16 13 25 30 10 16 23 35 30 43 7 7 17 20 22 29
6 9 36 53 68 98 31 45 57 86 57 91 0 6 4 7 10 4 5 -3 12 5 16 19 3 13 12 27
20 30 8 3 14 12 14 20 0 7 7 16 15 20 8 3 15 10 15 16 0 14 72 110 83 110 4 0
6 4 3 9 -5 7 3 20 44 69 6 6 8 12 5 12 -3 0 2 8 11 18 9 9 54 71 100 137 46
66 87 125 91 130 5 6 17 23 27 40 21 33 32 47 59 76 9 10 15 19 12 19 -6 0 -3
4 45 61 16 20 30 40 30 43 0 8 37 62 62 90 10 11 20 28 24 38 3 10 10 18 15
18 5 0 9 6 9 14 0 8 4 16 8 18 9 3 90 117 107 149 5 11 13 19 17 19 5 0 8 5 8
11 0 7 10 20 22 30 11 11 18 19 14 19 -4 0 -1 7 6 15 28 30 36 43 52 73 9 18
21 32 26 32 5 0 11 8 14 18 3 9 16 28 28 42 13 14 24 32 26 40 2 8 12 22 22
32 11 9 20 19 20 23 0 3 15 26 33 50 62 85 72 100 69 108 -1 4 2 7 7 7 5 0 26
27 47 60 22 33 42 60 47 60 4 0 7 6 7 14 0 8 4 16 8 18 7 2 107 142 124 173 4
7 -448 10 -1348 10 -948 0 -1354 -3 -1354 -11 0 -5 -9 -20 -20 -32 -11 -12
-20 -24 -20 -27 0 -5 -133 -213 -171 -267 -10 -15 -19 -32 -19 -38 0 -5 -4
-10 -9 -10 -5 0 -16 -16 -25 -35 -9 -19 -21 -35 -27 -35 -6 0 -7 -4 -4 -10 3
-5 1 -10 -4 -10 -6 0 -11 -5 -11 -12 0 -6 -11 -26 -25 -44 -14 -18 -25 -37
-25 -42 0 -6 -3 -12 -8 -14 -8 -3 -62 -84 -62 -93 0 -3 -9 -15 -20 -27 -10
-12 -17 -25 -14 -30 3 -4 0 -8 -6 -8 -6 0 -15 -10 -21 -22 -20 -45 -36 -68
-42 -61 -4 3 -7 -3 -7 -15 0 -12 -4 -22 -10 -22 -5 0 -10 -7 -10 -15 0 -8 -3
-15 -8 -15 -4 0 -16 -17 -27 -37 -11 -20 -24 -42 -30 -48 -15 -16 -34 -47 -45
-72 -5 -13 -14 -23 -20 -23 -6 0 -8 -4 -5 -10 3 -5 -3 -17 -15 -27 -11 -10
-20 -21 -20 -25 0 -4 -20 -38 -45 -75 -25 -37 -44 -70 -43 -73 1 -3 -10 -18
-25 -34 -15 -16 -33 -41 -40 -55 -21 -41 -41 -76 -48 -81 -4 -3 -24 -33 -45
-67 -123 -194 -178 -278 -185 -281 -5 -2 -9 -8 -9 -13 0 -5 -27 -50 -60 -99
-33 -50 -58 -90 -55 -90 3 0 -3 -9 -12 -19 -34 -37 -43 -50 -43 -62 0 -6 -10
-20 -22 -30 -11 -11 -18 -19 -13 -19 4 0 2 -7 -5 -15 -7 -8 -15 -15 -19 -15
-4 0 -24 36 -45 80 -22 44 -43 80 -48 80 -5 0 -6 5 -2 11 3 6 3 14 -2 18 -5 3
-23 33 -40 66 -17 33 -47 90 -67 127 -19 36 -33 69 -29 72 3 3 0 6 -6 6 -6 0
-16 16 -23 35 -7 19 -17 35 -21 35 -4 0 -8 9 -8 20 0 11 -3 20 -7 20 -5 0 -16
20 -26 45 -11 25 -24 45 -29 45 -6 0 -8 7 -4 15 3 8 2 15 -2 15 -4 0 -13 15
-21 33 -8 17 -17 34 -20 37 -8 6 -28 52 -29 64 0 5 -4 12 -9 15 -4 3 -24 38
-44 76 -134 258 -162 311 -171 323 -6 6 -7 12 -2 12 5 0 4 4 -1 8 -6 4 -26 39
-45 77 -19 39 -38 72 -42 73 -5 2 -8 11 -8 21 0 9 -4 21 -9 27 -5 5 -33 54
-62 109 -70 135 -113 215 -129 245 -8 14 -15 31 -16 39 -2 8 -6 17 -11 20 -4
3 -19 30 -33 58 -14 29 -29 53 -33 53 -5 0 -6 4 -2 9 3 5 1 12 -5 16 -6 4 -8
10 -5 15 3 4 -1 10 -9 13 -8 3 -17 19 -21 36 -4 17 -10 31 -15 31 -5 0 -11 13
-15 29 -7 31 -36 46 -56 27 -6 -6 -9 -6 -6 -1 7 13 -4792 13 -4812 1 -9 -6
-12 -5 -8 1 4 6 -7 10 -28 9 -30 -1 -36 -5 -42 -31 -4 -16 -7 -38 -6 -47 0
-10 -4 -18 -8 -18 -5 0 -9 -8 -9 -18 0 -10 -3 -22 -7 -26 -4 -4 -8 -19 -9 -34
-1 -15 -3 -28 -4 -29 -1 -2 -4 -7 -5 -13 -1 -5 -3 -11 -4 -12 -2 -2 -4 -14 -7
-27 -2 -14 -8 -29 -12 -35 -5 -6 -7 -21 -6 -33 0 -13 -3 -23 -9 -23 -6 0 -8
-3 -4 -6 3 -3 -1 -29 -10 -57 -8 -28 -16 -58 -18 -66 -2 -9 -11 -43 -20 -76
-9 -33 -19 -71 -21 -84 -3 -13 -10 -33 -15 -43 -6 -11 -8 -22 -5 -25 2 -3 0
-17 -6 -32 -9 -23 -13 -40 -21 -76 -2 -5 -6 -16 -10 -22 -5 -7 -6 -13 -3 -13
2 0 0 -15 -5 -32 -6 -18 -12 -44 -15 -57 -3 -13 -9 -32 -15 -43 -5 -10 -7 -18
-5 -18 3 0 -1 -18 -9 -41 -8 -23 -12 -45 -9 -50 3 -5 0 -9 -5 -9 -6 0 -10 -3
-9 -7 4 -15 -14 -88 -24 -100 -6 -7 -8 -13 -5 -13 3 0 1 -15 -4 -32 -6 -18
-12 -40 -14 -48 -2 -8 -11 -42 -20 -75 -9 -33 -18 -71 -21 -84 -3 -13 -10 -33
-15 -44 -8 -14 -8 -18 1 -12 7 5 6 -3 -3 -21 -13 -27 -20 -49 -32 -113 -2 -14
-10 -28 -17 -33 -11 -6 -11 -8 0 -8 9 0 10 -5 4 -17 -5 -10 -17 -49 -27 -88
-10 -38 -23 -76 -29 -84 -9 -12 -8 -13 2 -7 12 7 12 4 1 -15 -7 -13 -12 -27
-11 -31 1 -4 -5 -25 -13 -47 -8 -23 -14 -43 -15 -46 0 -3 0 -6 -1 -7 0 -2 -2
-14 -5 -28 -2 -14 -9 -36 -14 -50 -5 -14 -12 -36 -14 -50 -3 -14 -9 -39 -15
-57 -5 -17 -7 -34 -3 -37 3 -3 0 -6 -7 -6 -7 0 -10 -4 -7 -9 4 -5 1 -22 -5
-38 -7 -15 -11 -36 -10 -45 1 -10 -2 -18 -7 -18 -5 0 -9 -6 -9 -12 -1 -17 -10
-59 -17 -78 -6 -17 -17 -68 -18 -87 -1 -7 -4 -13 -8 -13 -4 0 -7 -10 -6 -22 1
-13 -2 -26 -6 -29 -4 -3 -9 -17 -10 -32 -1 -15 -5 -27 -9 -27 -4 0 -6 -8 -5
-17 2 -9 -5 -39 -15 -65 -9 -26 -15 -48 -13 -48 2 0 -2 -16 -11 -35 -8 -20
-10 -33 -4 -29 7 4 7 0 0 -12 -9 -16 -18 -47 -37 -116 -1 -5 -2 -9 -3 -10 -2
-2 -5 -14 -7 -28 -3 -14 -10 -43 -16 -65 -6 -22 -12 -43 -14 -47 -1 -5 -3 -10
-4 -13 -4 -7 -5 -14 -14 -62 -4 -24 -11 -43 -14 -43 -4 0 -8 -15 -10 -32 -4
-58 -6 -68 -13 -68 -4 0 -10 -19 -14 -42 -4 -24 -10 -47 -13 -53 -6 -10 -10
-24 -16 -55 -1 -8 -8 -35 -16 -60 -7 -25 -14 -52 -16 -60 -5 -26 -12 -55 -15
-55 -1 0 -3 -9 -4 -20 -1 -11 -15 -60 -29 -110 -15 -49 -29 -99 -31 -110 -3
-17 -16 -66 -51 -190 -3 -11 -8 -33 -11 -50 -3 -16 -8 -32 -11 -35 -4 -3 -8
-12 -8 -20 -2 -22 -11 -57 -29 -125 -9 -33 -18 -67 -20 -75 -2 -8 -4 -17 -6
-20 -1 -3 -3 -9 -4 -15 -2 -5 -4 -12 -5 -15 -3 -9 -10 -45 -12 -62 -1 -10 -6
-18 -11 -18 -5 0 -7 -6 -4 -14 3 -8 3 -17 -1 -20 -3 -4 -8 -19 -10 -34 -2 -15
-9 -30 -15 -34 -7 -4 -9 -8 -5 -8 3 0 0 -23 -7 -52 -8 -28 -12 -55 -9 -60 3
-4 1 -8 -4 -8 -5 0 -9 -6 -10 -12 0 -7 -6 -31 -12 -53 -6 -22 -12 -47 -14 -55
-3 -8 -12 -42 -21 -75 -25 -92 -27 -99 -30 -120 -2 -11 -4 -21 -5 -22 -2 -2
-3 -6 -5 -10 -1 -5 -5 -20 -9 -34 -4 -14 -9 -34 -11 -45 -2 -10 -4 -19 -5 -19
-1 0 -4 -11 -6 -25 -2 -13 -8 -27 -12 -30 -4 -3 -8 -14 -9 -25 -1 -23 -12 -74
-18 -92 -8 -23 -23 -13 -30 20 -4 17 -10 37 -13 42 -7 11 -12 32 -14 53 -1 6
-5 12 -9 12 -4 0 -8 8 -7 18 0 9 -11 47 -25 85 -14 37 -24 67 -22 67 2 0 -7
27 -20 60 -13 33 -21 60 -18 60 3 0 1 6 -4 13 -9 10 -23 55 -23 72 -1 3 -9 25
-20 51 -11 25 -20 52 -20 59 0 8 -5 26 -12 42 -6 15 -12 31 -13 36 -2 4 -3 8
-4 10 -2 1 -5 13 -7 27 -3 14 -9 26 -14 28 -5 2 -6 10 -3 18 3 8 1 14 -4 14
-5 0 -10 6 -11 13 -1 24 -13 70 -21 86 -5 9 -10 19 -10 23 -1 4 -4 16 -7 25
-16 51 -23 70 -30 88 -9 25 -14 45 -16 67 -1 10 -8 20 -15 22 -7 3 -10 12 -7
21 4 8 1 22 -6 30 -7 9 -10 18 -7 22 4 3 2 12 -3 19 -10 11 -21 45 -22 72 -1
6 -6 12 -11 12 -6 0 -8 3 -4 6 3 4 0 19 -8 34 -8 15 -11 30 -8 34 4 3 2 6 -4
6 -6 0 -9 9 -6 20 3 11 0 20 -6 20 -6 0 -11 8 -11 19 0 10 -7 35 -15 55 -8 20
-12 36 -9 36 4 0 1 6 -5 13 -6 8 -12 23 -14 35 -2 12 -6 25 -10 28 -4 4 -7 17
-7 29 0 11 -4 25 -10 31 -5 5 -11 21 -14 34 -2 14 -5 26 -7 28 -1 1 -2 5 -3
10 -1 4 -7 16 -13 27 -6 11 -9 28 -8 38 2 9 -1 17 -6 17 -6 0 -8 4 -4 9 3 5 1
12 -5 16 -5 3 -10 15 -10 26 0 10 -4 27 -9 37 -6 9 -19 46 -31 82 -26 83 -25
80 -35 115 -4 17 -10 35 -14 40 -3 6 -7 19 -8 30 -2 11 -8 24 -13 29 -4 4 -6
15 -3 22 3 8 0 14 -6 14 -6 0 -10 3 -9 8 1 4 -9 41 -22 82 -13 41 -23 78 -22
83 1 4 -3 7 -9 7 -6 0 -9 6 -6 14 3 7 2 17 -3 22 -5 5 -10 20 -12 34 -1 14 -5
27 -8 30 -8 7 -55 164 -52 172 1 5 -2 8 -8 8 -5 0 -10 10 -10 23 0 12 -7 31
-15 41 -8 10 -12 22 -10 26 3 5 -6 38 -20 74 -14 36 -22 66 -19 66 4 0 2 6 -4
13 -6 7 -13 25 -16 41 -3 15 -11 35 -18 43 -7 9 -12 17 -10 17 3 1 -5 46 -14
74 -2 7 -4 16 -5 20 0 4 -5 13 -11 20 -6 6 -7 12 -3 12 4 0 2 6 -4 14 -6 7
-12 25 -13 40 -1 14 -6 26 -11 26 -4 0 -6 4 -3 9 3 5 -1 14 -9 21 -7 6 -12 17
-9 24 3 7 -4 34 -15 59 -11 26 -18 47 -16 47 2 0 -3 16 -11 35 -8 19 -11 35
-8 35 4 0 2 6 -3 13 -9 11 -31 69 -37 100 -2 7 -6 20 -9 30 -10 24 -16 46 -17
52 0 3 -7 21 -15 41 -8 20 -12 40 -9 45 3 5 -2 12 -10 15 -9 3 -14 10 -11 14
4 7 -22 95 -42 140 -3 8 -7 22 -8 30 -1 8 -7 28 -13 43 -7 15 -15 40 -18 55
-4 15 -11 33 -17 40 -5 6 -6 12 -2 12 4 0 2 6 -4 14 -6 8 -11 18 -10 22 2 10
-5 32 -27 83 -8 18 -13 36 -10 38 2 3 -4 25 -14 49 -11 24 -16 44 -13 44 4 0
2 5 -5 12 -7 7 -12 18 -12 24 0 7 -5 25 -12 41 -7 15 -12 33 -13 38 -2 20 -58
180 -65 189 -5 5 -6 15 -3 22 3 8 1 14 -4 14 -5 0 -9 10 -10 22 -1 12 -6 33
-12 47 -15 42 -21 61 -18 65 1 1 -4 10 -11 19 -8 9 -11 21 -7 27 3 5 1 10 -6
10 -7 0 -10 3 -6 6 3 4 0 23 -8 43 -16 43 -25 70 -24 74 0 1 -9 26 -20 55 -11
28 -18 52 -15 52 4 0 1 7 -6 15 -7 9 -10 18 -6 22 3 3 -1 15 -11 25 -9 10 -13
18 -9 18 3 0 0 16 -8 35 -8 19 -13 35 -10 35 2 0 -2 12 -10 28 -8 15 -16 38
-17 52 -9 58 40 55 -895 54 -473 -1 -861 -2 -864 -3 -7 -1 -34 -92 -32 -103 1
-5 -2 -8 -7 -8 -5 0 -8 -8 -7 -17 2 -10 -1 -25 -5 -33 -8 -16 -18 -47 -19 -55
0 -3 -7 -19 -15 -35 -9 -17 -13 -30 -10 -30 3 0 -1 -12 -8 -27 -8 -16 -12 -34
-10 -40 3 -7 0 -13 -7 -13 -6 0 -10 -6 -9 -12 1 -7 -3 -26 -10 -43 -7 -16 -13
-38 -14 -47 -1 -10 -5 -18 -10 -18 -5 0 -7 -7 -3 -15 3 -8 2 -15 -2 -15 -4 0
-13 -21 -20 -47 -6 -27 -14 -56 -16 -65 -3 -9 -10 -26 -16 -38 -6 -11 -8 -25
-5 -30 3 -6 1 -10 -5 -10 -6 0 -8 -4 -5 -10 3 -5 1 -10 -5 -10 -6 0 -9 -4 -5
-10 3 -5 1 -17 -4 -27 -8 -15 -43 -116 -46 -133 -1 -7 -26 -83 -32 -100 -4 -8
-7 -17 -8 -20 -3 -12 -27 -86 -32 -100 -4 -8 -7 -17 -7 -20 -4 -19 -30 -98
-37 -113 -5 -10 -7 -22 -4 -27 4 -6 2 -10 -4 -10 -5 0 -13 -15 -16 -32 -4 -18
-10 -37 -13 -43 -7 -11 -12 -32 -14 -52 -1 -7 -5 -13 -10 -13 -4 0 -7 -3 -6
-7 3 -16 -15 -83 -23 -83 -4 0 -6 -9 -4 -20 2 -11 0 -20 -6 -20 -5 0 -9 -7 -9
-15 0 -8 -12 -50 -26 -92 -15 -43 -27 -84 -27 -90 0 -7 -5 -13 -10 -13 -6 0
-8 -3 -5 -6 3 -3 -5 -34 -18 -70 -12 -35 -20 -64 -17 -64 3 0 1 -6 -5 -12 -11
-15 -47 -127 -45 -145 0 -7 -3 -13 -7 -13 -6 0 -15 -28 -21 -68 0 -4 -5 -12
-11 -19 -5 -7 -7 -17 -3 -23 3 -5 1 -10 -6 -10 -7 0 -10 -3 -7 -6 4 -3 0 -21
-8 -40 -8 -19 -11 -34 -8 -34 4 0 1 -6 -5 -14 -7 -8 -14 -27 -17 -42 -3 -16
-8 -31 -12 -34 -4 -3 -8 -11 -10 -18 -1 -7 -4 -20 -6 -30 -3 -19 -13 -46 -28
-82 -6 -14 -12 -35 -13 -47 -1 -12 -8 -29 -15 -38 -7 -8 -10 -15 -7 -15 4 0 0
-18 -8 -39 -7 -22 -11 -42 -8 -45 4 -3 1 -6 -5 -6 -7 0 -12 -6 -12 -14 0 -8
-5 -27 -12 -43 -6 -15 -10 -32 -9 -37 1 -4 -2 -13 -7 -20 -6 -6 -13 -27 -17
-46 -4 -19 -12 -41 -17 -47 -6 -7 -7 -13 -3 -13 4 0 2 -7 -5 -15 -7 -8 -9 -15
-5 -15 4 0 3 -6 -3 -12 -6 -7 -13 -30 -17 -50 -4 -21 -11 -38 -16 -38 -4 0 -6
-9 -4 -20 2 -11 -1 -20 -7 -20 -6 0 -8 -3 -5 -7 4 -3 2 -12 -4 -20 -6 -7 -9
-13 -5 -13 3 0 0 -15 -8 -34 -8 -19 -12 -37 -8 -40 3 -3 -1 -6 -8 -6 -7 0 -11
-3 -7 -6 3 -3 -3 -28 -13 -55 -11 -27 -17 -49 -15 -49 3 0 -1 -13 -10 -30 -9
-16 -13 -30 -10 -30 3 0 -3 -17 -13 -37 -11 -21 -18 -46 -17 -55 2 -10 -1 -18
-6 -18 -5 0 -8 -3 -7 -7 0 -5 -1 -15 -5 -23 -23 -61 -98 -298 -99 -317 -1 -7
-5 -13 -10 -13 -4 0 -7 -3 -6 -7 2 -13 -14 -67 -24 -80 -5 -7 -7 -17 -4 -22 4
-5 1 -13 -5 -16 -5 -4 -8 -13 -5 -20 3 -8 2 -15 -2 -17 -9 -4 -52 -131 -52
-152 0 -9 -4 -16 -8 -16 -4 0 -8 -8 -9 -17 -1 -10 -14 -52 -28 -93 -14 -41
-28 -82 -30 -90 -2 -8 -4 -16 -5 -17 -2 -2 -4 -7 -5 -13 -1 -5 -4 -12 -5 -15
-1 -3 -4 -9 -5 -15 -1 -5 -3 -11 -5 -12 -1 -2 -3 -10 -5 -18 -3 -14 -98 -305
-111 -340 -3 -8 -6 -17 -6 -20 -1 -3 -8 -21 -16 -40 -8 -19 -14 -36 -13 -37 5
-11 -1 -33 -7 -29 -4 2 -9 -5 -9 -17 -2 -27 -7 -49 -14 -62 -12 -20 -36 -98
-46 -147 -3 -16 -10 -28 -15 -28 -5 0 -7 -4 -3 -9 3 -5 0 -13 -6 -16 -5 -4 -8
-13 -5 -21 3 -7 2 -15 -2 -18 -5 -3 -14 -28 -22 -55 -7 -28 -18 -51 -22 -51
-5 0 -6 -5 -2 -11 8 -14 -16 -60 -28 -53 -4 3 -6 10 -2 15 3 5 1 16 -5 23 -7
8 -11 18 -10 22 1 5 0 11 -1 14 -3 9 -10 44 -12 63 -1 9 -5 17 -8 17 -4 0 -7
6 -7 13 -1 16 -10 54 -22 95 -5 17 -7 32 -4 32 3 0 1 6 -5 13 -5 6 -15 39 -22
72 -7 33 -16 68 -21 77 -5 9 -10 28 -11 42 -1 15 -6 26 -11 26 -4 0 -5 5 -2
10 3 6 3 16 -2 23 -4 6 -9 23 -11 37 -2 13 -9 31 -15 39 -10 12 -9 13 3 6 12
-6 13 -5 3 6 -7 7 -13 23 -13 34 0 12 -3 25 -7 29 -4 3 -8 14 -9 24 -4 26 -21
93 -32 130 -6 17 -9 32 -6 32 2 0 -2 10 -9 23 -8 12 -13 32 -12 45 1 12 -2 22
-6 22 -5 0 -9 10 -9 23 0 12 -7 42 -16 66 -8 24 -13 50 -10 57 3 7 1 14 -3 16
-4 2 -15 32 -25 68 -9 36 -19 73 -21 83 -3 9 -7 25 -9 35 -3 9 -9 32 -15 50
-5 17 -7 32 -3 32 3 0 1 5 -6 12 -7 7 -12 23 -12 36 0 13 -4 32 -10 42 -5 10
-11 32 -12 49 -1 17 -6 31 -11 31 -5 0 -7 6 -4 14 3 8 3 17 -1 20 -3 4 -7 12
-8 19 -2 7 -10 39 -19 71 -8 33 -17 67 -19 75 -2 9 -6 23 -9 31 -4 8 -9 26
-11 40 -3 14 -5 25 -6 25 -2 0 -9 30 -14 55 -2 8 -6 22 -9 30 -6 17 -19 75
-17 75 1 0 -4 14 -10 30 -7 17 -14 41 -16 55 -3 14 -12 49 -21 79 -8 29 -16
59 -17 65 -1 6 -5 17 -10 24 -4 7 -5 16 -2 19 3 3 1 13 -4 23 -5 9 -11 28 -13
41 -3 13 -11 44 -18 69 -18 63 -20 73 -23 90 -1 9 -5 20 -8 25 -3 6 -11 35
-17 65 -7 30 -15 62 -18 70 -3 8 -7 22 -9 30 -5 25 -26 104 -31 120 -4 8 -8
24 -10 35 -2 11 -9 36 -15 55 -7 19 -13 37 -13 40 -1 3 -5 24 -9 48 -4 23 -12
42 -17 42 -4 0 -6 7 -3 15 4 8 1 21 -5 29 -6 7 -8 16 -4 19 3 4 0 13 -7 22 -7
8 -10 15 -7 15 4 0 0 18 -8 40 -8 22 -12 40 -10 40 2 0 -2 19 -11 41 -8 23
-16 51 -18 63 -2 12 -12 50 -21 86 -9 36 -18 73 -20 82 -2 9 -9 26 -15 37 -6
12 -9 21 -6 21 2 0 -6 38 -19 84 -13 47 -21 87 -17 90 3 3 1 6 -4 6 -5 0 -11
8 -12 18 -2 23 -8 44 -15 62 -4 8 -9 26 -11 40 -3 14 -5 25 -6 25 -2 0 -10 37
-12 63 -1 12 -6 22 -10 22 -4 0 -8 14 -8 30 0 17 -4 30 -8 30 -4 0 -9 10 -9
23 -1 23 -20 100 -31 127 -3 8 -6 20 -7 25 0 6 -4 16 -8 23 -5 6 -6 16 -2 21
3 5 1 12 -5 16 -5 3 -10 19 -10 34 0 15 -3 31 -7 35 -8 8 -14 34 -14 59 0 9
-5 17 -11 17 -6 0 -9 3 -6 6 4 3 2 20 -3 37 -6 18 -12 43 -15 57 -2 14 -7 32
-10 40 -7 20 -43 159 -49 187 -2 13 -6 27 -10 33 -6 10 -14 40 -20 75 -2 11
-4 20 -5 20 -1 0 -3 8 -6 18 -2 9 -6 25 -8 35 -3 9 -5 17 -6 17 -1 0 -4 11 -7
25 -7 36 -11 54 -14 60 -1 3 -3 10 -4 15 -2 6 -4 12 -5 15 -1 3 -3 12 -5 20
-4 14 -19 71 -30 113 -15 53 -17 64 -22 90 -3 15 -8 27 -12 27 -3 0 -7 10 -8
23 -4 36 -9 56 -16 64 -5 4 -520 7 -1146 8 l-1139 0 0 -22z"/>
</g>
</svg>
